# xmcd
#
# Track frame offsets:
#	150
#	36522
#	70032
#	106332
#	148615
#	182232
#	221675
#	258120
#
# Disc length: 4022 seconds
#
# Revision: 0
# Processed by: cddbd v1.5.2PL0 Copyright (c) Steve Scherf et al.
# Submitted via: EasyCDDAExtractor 15.3.0.1
#
DISCID=750fb408
DTITLE=Cher - When The Money's Gone, Love One Another
DYEAR=2003
DGENRE=Pop
TTITLE0=When The Money's Gone (Brother Brown H&H Vocal Mix)
TTITLE1=When The Money's Gone (The Passengerz Club Mix)
TTITLE2=When The Money's Gone (Thick Dick Vs. Cher Bootleg Mix)
TTITLE3=When The Money's Gone (Manny Lehman Vocal)
TTITLE4=When The Money's Gone (Brother Brown Dynamo Mix)
TTITLE5=Love One Another (Eddie Baez Club Mix)
TTITLE6=Love One Another (J Star Club Mix)
TTITLE7=Love One Another (Friscia and Lamboy Club Mix)
EXTD=YEAR: 2003\n
EXTT0=
EXTT1=
EXTT2=
EXTT3=
EXTT4=
EXTT5=
EXTT6=
EXTT7=
PLAYORDER=
